<svg xmlns="http://www.w3.org/2000/svg" width="96" height="96" viewBox="0 0 96 96">
  <defs>
    <linearGradient id="skin" x1="22" y1="18" x2="76" y2="84" gradientUnits="userSpaceOnUse">
      <stop offset="0" stop-color="#e85b4d"/>
      <stop offset="1" stop-color="#8f1f26"/>
    </linearGradient>
  </defs>
  <path d="M25 31 13 10l26 11M71 31l12-21-26 11" fill="#6e1720" stroke="#270c10" stroke-width="4" stroke-linejoin="round"/>
  <path d="M22 42c0-20 52-22 52 0v18c0 21-52 21-52 0z" fill="url(#skin)" stroke="#270c10" stroke-width="5"/>
  <path d="M27 65 15 78M69 65l12 13M34 78h28" fill="none" stroke="#270c10" stroke-width="5" stroke-linecap="round"/>
  <path d="M32 47c5-5 11-5 16 0M49 47c5-5 11-5 16 0" fill="none" stroke="#ffe36e" stroke-width="4" stroke-linecap="round"/>
  <circle cx="40" cy="52" r="3" fill="#1b0808"/>
  <circle cx="56" cy="52" r="3" fill="#1b0808"/>
  <path d="M36 66c8 4 16 4 24 0" fill="none" stroke="#1b0808" stroke-width="4" stroke-linecap="round"/>
  <path d="M42 70h12" stroke="#f7c86b" stroke-width="3" stroke-linecap="round"/>
</svg>
