<svg xmlns="http://www.w3.org/2000/svg" width="112" height="112" viewBox="0 0 112 112">
  <defs>
    <linearGradient id="elite" x1="20" y1="18" x2="92" y2="98" gradientUnits="userSpaceOnUse">
      <stop offset="0" stop-color="#ff8a2a"/>
      <stop offset="0.55" stop-color="#c93d23"/>
      <stop offset="1" stop-color="#5a1420"/>
    </linearGradient>
  </defs>
  <path d="M25 38 12 10l34 17M87 38l13-28-34 17" fill="#7a1a20" stroke="#240b0d" stroke-width="5" stroke-linejoin="round"/>
  <path d="M18 53c0-27 76-30 76 0v20c0 30-76 30-76 0z" fill="url(#elite)" stroke="#240b0d" stroke-width="6"/>
  <path d="M31 33c12-13 38-13 50 0" fill="none" stroke="#ffd15c" stroke-width="6" stroke-linecap="round"/>
  <path d="M25 75 8 91M87 75l17 16M36 94h40" fill="none" stroke="#240b0d" stroke-width="6" stroke-linecap="round"/>
  <path d="M34 56h18M60 56h18" stroke="#fff0a0" stroke-width="5" stroke-linecap="round"/>
  <circle cx="43" cy="63" r="4" fill="#120606"/>
  <circle cx="69" cy="63" r="4" fill="#120606"/>
  <path d="M40 80c11 7 22 7 33 0" fill="none" stroke="#190808" stroke-width="6" stroke-linecap="round"/>
  <path d="M50 85h13" stroke="#ffd15c" stroke-width="4" stroke-linecap="round"/>
</svg>
